<svg width="106" height="106" viewBox="0 0 106 106" fill="none" xmlns="http://www.w3.org/2000/svg">
<rect width="106" height="106" fill="white" fill-opacity="0.04"/>
<path d="M57.8466 67.9092C57.8466 71.9733 57.8678 72.0034 57.783 72.4274C57.5953 73.6265 56.962 74.7105 56.0097 75.4628C55.0574 76.2151 53.8562 76.5802 52.6463 76.4853C51.4364 76.3903 50.3069 75.8422 49.4836 74.9505C48.6603 74.0589 48.2039 72.8893 48.2056 71.6757V67.9092C49.6798 68.5641 51.272 68.9118 52.885 68.9313C54.498 68.9508 56.0981 68.6415 57.5877 68.0223C57.5893 68.0223 57.5893 68.0223 57.5908 68.0208C57.6761 67.9851 57.7613 67.9479 57.8466 67.9092Z" fill="url(#paint0_linear_1714_816)"/>
<path d="M68.9978 42.321V53.3778C68.9978 55.2195 67.6507 56.8975 65.7262 56.6974L65.684 56.6929C50.9446 55.1014 55.3113 55.0397 40.32 56.6974C38.398 56.8925 37.0484 55.2249 37.0484 53.3778V42.321C37.0454 41.7606 37.1715 41.2071 37.4168 40.7032C37.9128 39.683 38.8796 38.9697 40.0087 38.9697C55.2908 40.8197 50.8566 40.8063 66.039 38.9697C67.6545 38.9697 68.9978 40.4497 68.9978 42.321Z" fill="url(#paint1_linear_1714_816)"/>
<path d="M66.661 44.0724V51.6254C66.661 52.8872 65.5079 54.0299 63.8676 53.8934C50.5591 52.7442 55.2234 52.8026 41.9117 53.9157C40.5818 53.9157 39.4926 52.9857 39.3921 51.8043C39.3796 51.6648 39.3841 52.1233 39.3841 44.0724C39.3841 42.8053 40.5212 41.7832 41.9117 41.7832C54.9481 43.0454 51.0953 43.0441 64.1348 41.7832C65.5493 41.7835 66.661 42.8226 66.661 44.0724Z" fill="url(#paint2_linear_1714_816)"/>
<path d="M68.2118 40.0354C67.9117 39.6669 67.5281 39.3752 67.0927 39.1844C66.2557 38.829 66.8021 38.8775 56.2241 40.1454V24.4424C58.462 25.2329 60.4254 26.6017 63.8005 28.0942C65.1413 28.6847 66.6277 28.0012 67.9623 28.4956C69.5076 29.0676 69.6921 30.5339 69.6254 31.9862C69.5929 32.6946 69.4797 33.4045 69.5092 34.1144C69.5495 35.0614 69.9835 35.5993 70.357 36.4425C70.7268 37.2727 70.4685 37.8443 68.2118 40.0354Z" fill="#1C1C1C"/>
<path d="M49.8211 24.6709V40.1461L40.0081 38.9697C38.8936 38.9697 37.9193 39.663 37.4165 40.687C35.6154 40.0779 33.0982 38.6814 34.9442 35.8976C37.6614 31.804 38.6379 32.6596 38.9572 29.8494C39.2346 27.4128 40.8683 25.3265 43.463 25.3265C47.1246 25.3265 48.2387 24.9488 49.8211 24.6709Z" fill="#1C1C1C"/>
<path d="M56.2239 22.9297V40.1455C54.0983 40.4189 51.9464 40.4189 49.8208 40.1455V22.9297H56.2239Z" fill="url(#paint3_linear_1714_816)"/>
<path d="M44.9476 46.3661C44.9476 46.7278 44.8403 47.0815 44.6393 47.3822C44.4383 47.683 44.1527 47.9174 43.8185 48.0559C43.4843 48.1943 43.1165 48.2305 42.7617 48.16C42.4069 48.0894 42.081 47.9152 41.8253 47.6594C41.5695 47.4036 41.3953 47.0777 41.3247 46.7229C41.2541 46.3681 41.2903 46.0004 41.4288 45.6662C41.5672 45.332 41.8016 45.0463 42.1024 44.8454C42.4032 44.6444 42.7568 44.5371 43.1186 44.5371C43.3587 44.5371 43.5966 44.5844 43.8185 44.6763C44.0404 44.7682 44.242 44.903 44.4118 45.0728C44.5817 45.2426 44.7164 45.4443 44.8083 45.6662C44.9002 45.8881 44.9476 46.1259 44.9476 46.3661Z" fill="white"/>
<path d="M65.6837 56.6925C65.2819 58.1074 64.8072 59.5005 64.2614 60.8664C64.2448 60.9039 64.2314 60.9415 64.2163 60.9775C63.8842 61.7909 63.3669 63.1968 62.0212 64.7844C60.8203 66.1985 59.3014 67.3078 57.589 68.0215C57.5874 68.023 57.5874 68.023 57.5859 68.023C51.4651 70.594 44.5265 67.5839 42.0834 61.5849C41.4022 59.9939 40.827 58.3595 40.3618 56.6925C55.4103 55.0673 50.6323 55.0673 65.6837 56.6925Z" fill="url(#paint4_linear_1714_816)"/>
<path d="M57.7833 72.4258C57.6063 73.5606 57.0296 74.5947 56.1571 75.3416C55.2847 76.0886 54.174 76.4991 53.0255 76.4991C51.877 76.4991 50.7664 76.0886 49.8939 75.3416C49.0215 74.5947 48.4448 73.5606 48.2678 72.4258C42.6937 73.0768 38.8688 77.6713 38.7539 83.0696H67.2972C67.1823 77.6515 63.3358 73.0749 57.7833 72.4258Z" fill="url(#paint5_linear_1714_816)"/>
<path d="M33.377 46.054V51.1855C33.377 51.4321 33.4749 51.6687 33.6493 51.8431C33.8238 52.0175 34.0603 52.1155 34.307 52.1155C34.5536 52.1155 34.7902 52.0175 34.9646 51.8431C35.139 51.6687 35.237 51.4321 35.237 51.1855V46.054C35.237 45.8074 35.139 45.5708 34.9646 45.3964C34.7902 45.222 34.5536 45.124 34.307 45.124C34.0603 45.124 33.8238 45.222 33.6493 45.3964C33.4749 45.5708 33.377 45.8074 33.377 46.054Z" fill="url(#paint6_linear_1714_816)"/>
<path d="M70.7676 51.1855C70.7676 51.4321 70.8656 51.6687 71.04 51.8431C71.2144 52.0175 71.4509 52.1155 71.6976 52.1155C71.9442 52.1155 72.1808 52.0175 72.3552 51.8431C72.5296 51.6687 72.6276 51.4321 72.6276 51.1855V46.054C72.6276 45.8074 72.5296 45.5708 72.3552 45.3964C72.1808 45.222 71.9442 45.124 71.6976 45.124C71.4509 45.124 71.2144 45.222 71.04 45.3964C70.8656 45.5708 70.7676 45.8074 70.7676 46.054V51.1855Z" fill="url(#paint7_linear_1714_816)"/>
<path d="M42.5867 43.1689C41.9556 43.1689 41.3388 43.356 40.8141 43.7066C40.2894 44.0571 39.8804 44.5554 39.6389 45.1384C39.3974 45.7214 39.3342 46.3629 39.4573 46.9819C39.5804 47.6008 39.8843 48.1693 40.3305 48.6155C40.7767 49.0617 41.3452 49.3656 41.9641 49.4887C42.583 49.6118 43.2246 49.5486 43.8075 49.3071C44.3905 49.0656 44.8888 48.6566 45.2394 48.1319C45.59 47.6072 45.7771 46.9903 45.777 46.3593C45.7761 45.5135 45.4397 44.7025 44.8416 44.1044C44.2435 43.5063 43.4325 43.1699 42.5867 43.1689ZM42.5867 47.6904C42.3234 47.6905 42.066 47.6124 41.8471 47.4662C41.6282 47.3199 41.4575 47.1121 41.3568 46.8688C41.256 46.6256 41.2296 46.3579 41.2809 46.0997C41.3323 45.8415 41.459 45.6043 41.6452 45.4181C41.8314 45.2319 42.0685 45.1051 42.3268 45.0538C42.585 45.0024 42.8526 45.0287 43.0959 45.1295C43.3391 45.2302 43.547 45.4008 43.6933 45.6198C43.8396 45.8387 43.9177 46.096 43.9177 46.3593C43.9172 46.7122 43.7768 47.0504 43.5273 47.3C43.2778 47.5495 42.9395 47.6899 42.5867 47.6904Z" fill="#272C47"/>
<defs>
<linearGradient id="paint0_linear_1714_816" x1="53.0273" y1="76.4633" x2="53.0273" y2="68.3923" gradientUnits="userSpaceOnUse">
<stop stop-color="#FFD4CC"/>
<stop offset="1" stop-color="#F2A399"/>
</linearGradient>
<linearGradient id="paint1_linear_1714_816" x1="43.3153" y1="38.9697" x2="49.0527" y2="60.6482" gradientUnits="userSpaceOnUse">
<stop stop-color="#0064DF"/>
<stop offset="1" stop-color="#0081FB"/>
</linearGradient>
<linearGradient id="paint2_linear_1714_816" x1="38.6394" y1="40.7507" x2="52.3917" y2="63.4585" gradientUnits="userSpaceOnUse">
<stop offset="0.157367" stop-color="#005BCA"/>
<stop offset="1" stop-color="#128CFF"/>
</linearGradient>
<linearGradient id="paint3_linear_1714_816" x1="53.0225" y1="41.3235" x2="53.0225" y2="22.7733" gradientUnits="userSpaceOnUse">
<stop stop-color="#8D8DB2"/>
<stop offset="1" stop-color="#E1E1FB"/>
</linearGradient>
<linearGradient id="paint4_linear_1714_816" x1="5108.49" y1="4180.03" x2="5108.49" y2="2962.57" gradientUnits="userSpaceOnUse">
<stop stop-color="#FFD4CC"/>
<stop offset="1" stop-color="#F2A399"/>
</linearGradient>
<linearGradient id="paint5_linear_1714_816" x1="37.9755" y1="71.5199" x2="48.9671" y2="93.1674" gradientUnits="userSpaceOnUse">
<stop offset="0.157367" stop-color="#005BCA"/>
<stop offset="1" stop-color="#128CFF"/>
</linearGradient>
<linearGradient id="paint6_linear_1714_816" x1="33.7418" y1="45.124" x2="37.632" y2="47.2958" gradientUnits="userSpaceOnUse">
<stop stop-color="#0064DF"/>
<stop offset="1" stop-color="#0081FB"/>
</linearGradient>
<linearGradient id="paint7_linear_1714_816" x1="71.1324" y1="45.124" x2="75.0226" y2="47.2958" gradientUnits="userSpaceOnUse">
<stop stop-color="#0064DF"/>
<stop offset="1" stop-color="#0081FB"/>
</linearGradient>
</defs>
</svg>
