<svg width="106" height="106" viewBox="0 0 106 106" fill="none" xmlns="http://www.w3.org/2000/svg">
<rect width="106" height="106" fill="white" fill-opacity="0.04"/>
<path d="M62.0135 39.019L65.4012 29.7427C65.6736 28.9974 65.1215 28.208 64.328 28.208H41.7474C40.9535 28.208 40.4014 28.9974 40.6738 29.7427L44.0615 39.019C44.7907 41.0159 44.0479 43.2538 42.2657 44.4127C36.4892 48.1688 32.6445 54.6889 32.6445 61.3664C32.6445 71.6574 41.7746 79.9998 53.0375 79.9998C64.3004 79.9998 73.4305 71.6574 73.4305 61.3664C73.4305 54.6889 69.5862 48.1688 63.8093 44.4127C62.0271 43.2538 61.2842 41.0159 62.0135 39.019Z" fill="url(#paint0_linear_1714_795)"/>
<path d="M64.3283 28.2083H57.9898L58.0051 28.0603C58.118 26.9583 57.2532 26 56.1454 26H49.9297C48.8219 26 47.9567 26.9583 48.07 28.0603L48.0848 28.2078H41.7468C40.9537 28.2078 40.4013 28.998 40.6732 29.7433L43.9122 38.6118C44.1462 38.9438 44.2941 39.3422 44.3188 39.7736C44.4828 39.9927 45.1564 40.5572 46.7533 41.0717C47.5645 41.3333 48.484 41.5397 49.4679 41.686L49.7513 44.4496H56.3229L56.6064 41.686C57.5906 41.5397 58.5098 41.3333 59.3214 41.0717C60.9182 40.5572 61.5914 39.9927 61.7554 39.7736C61.7801 39.3422 61.928 38.9438 62.1624 38.6118L65.4015 29.7433C65.6734 28.998 65.1213 28.2083 64.3283 28.2083Z" fill="url(#paint1_linear_1714_795)"/>
<path d="M56.3234 44.45H49.7518L48.07 28.0603C47.9567 26.9583 48.8219 26 49.9298 26H56.1454C57.2532 26 58.118 26.9583 58.0051 28.0603L56.3234 44.45Z" fill="url(#paint2_linear_1714_795)"/>
<path d="M53.0376 46.4542C49.8332 46.4542 46.787 45.9532 44.4596 45.0431C40.4156 43.4623 39.812 41.1482 39.812 39.9094C39.812 38.6635 40.8218 37.6533 42.0681 37.6533C42.9254 37.6533 43.6711 38.132 44.0526 38.8365C44.5944 39.8364 45.4542 40.6279 46.5299 40.9978C46.6024 41.0226 46.6765 41.0473 46.7532 41.072C48.4926 41.6331 50.7243 41.9421 53.0376 41.9421C55.3505 41.9421 57.5827 41.6331 59.3221 41.072C59.3987 41.0473 59.4733 41.0226 59.5454 40.9978C60.6211 40.6279 61.4805 39.8364 62.0227 38.8365C62.4042 38.132 63.1499 37.6533 64.0072 37.6533C65.2531 37.6533 66.2632 38.6635 66.2632 39.9094C66.2632 41.1482 65.6597 43.4623 61.6156 45.0431C59.2887 45.9528 56.2421 46.4542 53.0376 46.4542Z" fill="url(#paint3_linear_1714_795)"/>
<path d="M60.3059 55.2089C58.6707 53.2034 56.0253 51.8994 53.0376 51.8994C48.0719 51.8994 44.0464 55.4994 44.0464 59.9402V61.8411C44.0464 64.1935 45.1765 66.3099 46.9769 67.7803L58.5158 79.3188C65.0384 77.6606 70.2447 73.1151 72.3804 67.2834L60.3059 55.2089Z" fill="url(#paint4_linear_1714_795)"/>
<path d="M62.0288 59.9402C62.0288 55.4994 58.0033 51.8994 53.0376 51.8994C48.0719 51.8994 44.0464 55.4994 44.0464 59.9402V61.8411C44.0464 66.2819 48.0719 69.8818 53.0376 69.8818C58.0033 69.8818 62.0288 66.2819 62.0288 61.8411C62.0288 61.8349 62.0288 59.9468 62.0288 59.9402Z" fill="url(#paint5_linear_1714_795)"/>
<path d="M60.4424 55.3795C58.8209 53.2775 56.1092 51.8994 53.0374 51.8994C49.9656 51.8994 47.2543 53.2771 45.6323 55.3795V66.4022C47.2543 68.5042 49.9656 69.8818 53.0374 69.8818C56.1092 69.8818 58.8209 68.5042 60.4424 66.4022V55.3795Z" fill="url(#paint6_linear_1714_795)"/>
<path d="M47.7642 68.3538C49.2457 69.3149 51.0675 69.8818 53.0376 69.8818C55.0081 69.8818 56.8299 69.3149 58.3114 68.3538V53.4279C56.8299 52.4667 55.0081 51.8994 53.0376 51.8994C51.0675 51.8994 49.2457 52.4667 47.7642 53.4279V68.3538Z" fill="url(#paint7_linear_1714_795)"/>
<path d="M50.9946 69.6734C51.6509 69.8097 52.3344 69.8818 53.0373 69.8818C53.7401 69.8818 54.424 69.8097 55.0803 69.6734V52.1083C54.424 51.9715 53.7401 51.8994 53.0373 51.8994C52.3348 51.8994 51.6509 51.9715 50.9946 52.1083V69.6734Z" fill="url(#paint8_linear_1714_795)"/>
<path d="M62.0288 59.9402C62.0288 55.4994 58.0033 51.8994 53.0376 51.8994C48.0719 51.8994 44.0464 55.4994 44.0464 59.9402C44.0464 64.381 48.0719 67.9809 53.0376 67.9809C58.0033 67.9809 62.0288 64.381 62.0288 59.9402Z" fill="url(#paint9_radial_1714_795)"/>
<path d="M61.0257 59.9407C61.0257 55.9951 57.4492 52.7969 53.0373 52.7969C48.6253 52.7969 45.0488 55.9951 45.0488 59.9407C45.0488 63.8863 48.6253 67.085 53.0373 67.085C57.4492 67.085 61.0257 63.8863 61.0257 59.9407Z" fill="url(#paint10_radial_1714_795)"/>
<path d="M60.2697 59.94C60.2697 56.3685 57.0319 53.4727 53.0377 53.4727C49.0435 53.4727 45.8057 56.3685 45.8057 59.94C45.8057 63.512 49.0435 66.4074 53.0377 66.4074C57.0319 66.4074 60.2697 63.512 60.2697 59.94Z" fill="url(#paint11_radial_1714_795)"/>
<path d="M61.5873 62.4342L55.3305 56.1773C55.2415 56.0385 55.0697 55.9227 54.8139 55.8308C54.5378 55.7315 54.2441 55.6644 53.9322 55.6277C53.9157 55.617 53.8988 55.6075 53.8815 55.5997L53.4201 55.1053C53.3476 55.0522 53.2697 55.0254 53.1861 55.0254C53.0946 55.0254 53.0164 55.0522 52.9517 55.1053C52.887 55.1589 52.8549 55.2198 52.8549 55.2882V55.6195C52.2381 55.6879 51.7219 55.8934 51.307 56.2362C50.8917 56.579 50.6845 57.0812 50.6845 57.7429C50.6845 57.9785 50.7109 58.1932 50.7644 58.3868C50.8176 58.5808 50.9049 58.7498 51.0269 58.8944C51.1488 59.0386 51.265 59.1622 51.3754 59.2647C51.3762 59.2656 51.3771 59.266 51.3779 59.2668C51.3779 59.2668 52.8141 60.7034 52.8149 60.7038C52.8281 60.7182 52.8413 60.7314 52.8544 60.7454V62.6558C52.517 62.6331 52.22 62.5458 51.9629 62.3938C51.7058 62.2422 51.504 62.0996 51.3569 61.9666C51.2098 61.8335 51.0911 61.7667 51.0005 61.7667C50.8641 61.7667 50.7434 61.8392 50.6371 61.9834C50.5313 62.1281 50.4785 62.2722 50.4785 62.4164C50.4785 62.6476 50.6087 62.875 50.8687 63.0991L55.4561 67.6866C58.3532 66.9648 60.66 64.9782 61.5873 62.4342Z" fill="url(#paint12_linear_1714_795)"/>
<path d="M50.4785 62.4164C50.4785 62.2722 50.5317 62.1281 50.6375 61.9834C50.7434 61.8388 50.8645 61.7667 51.0009 61.7667C51.0911 61.7667 51.2098 61.8335 51.3569 61.9666C51.504 62.0996 51.7058 62.2422 51.9629 62.3938C52.22 62.5458 52.517 62.6331 52.8549 62.6558V59.9771C52.6262 59.8934 52.4511 59.8271 52.3292 59.7777C52.2072 59.7282 52.0453 59.6561 51.8438 59.561C51.642 59.4662 51.4858 59.3673 51.3754 59.2647C51.265 59.1622 51.1488 59.0386 51.0269 58.894C50.9053 58.7498 50.8176 58.5808 50.7644 58.3868C50.7109 58.1932 50.6845 57.9781 50.6845 57.7424C50.6845 57.0812 50.8917 56.579 51.307 56.2362C51.7219 55.8934 52.2381 55.6879 52.8549 55.6195V55.2882C52.8549 55.2194 52.887 55.1589 52.9521 55.1053C53.0164 55.0522 53.0946 55.0254 53.1861 55.0254C53.2697 55.0254 53.3476 55.0522 53.4201 55.1053C53.4926 55.1589 53.5289 55.2194 53.5289 55.2882V55.5964C53.9932 55.6121 54.4216 55.6899 54.8139 55.8308C55.2061 55.9717 55.4022 56.1678 55.4022 56.4191C55.4022 56.5559 55.356 56.6989 55.2637 56.8472C55.1719 56.9959 55.0487 57.0701 54.8954 57.0701C54.8345 57.0701 54.6676 57.0054 54.3949 56.876C54.1221 56.7467 53.8333 56.6705 53.5289 56.6474V58.9623C53.8317 59.0765 54.0834 59.1848 54.284 59.2874C54.4847 59.39 54.6969 59.5325 54.9206 59.715C55.1439 59.8971 55.3124 60.127 55.4257 60.4047C55.5394 60.682 55.5962 61.007 55.5962 61.3795C55.5962 62.0597 55.4108 62.6006 55.0396 63.0019C54.6684 63.4027 54.165 63.6495 53.5289 63.7414V64.1229C53.5289 64.19 53.4926 64.2498 53.4201 64.3025C53.3476 64.3548 53.2697 64.3808 53.1861 64.3808C53.0946 64.3808 53.0164 64.3548 52.9521 64.3025C52.887 64.2502 52.8549 64.1905 52.8549 64.1229V63.7756C52.1924 63.7678 51.6304 63.6161 51.1698 63.3208C50.7088 63.0249 50.4785 62.7238 50.4785 62.4164ZM51.8154 57.6287C51.8154 57.9254 51.9073 58.1511 52.0923 58.3069C52.2768 58.463 52.5537 58.6093 52.9232 58.746V56.6692C52.1846 56.7607 51.8154 57.0804 51.8154 57.6287ZM53.4601 62.6331C54.13 62.5116 54.4653 62.1355 54.4653 61.5047C54.4653 61.1702 54.3776 60.9082 54.2029 60.7182C54.0274 60.5283 53.7802 60.3647 53.4601 60.228V62.6331Z" fill="url(#paint13_linear_1714_795)"/>
<defs>
<linearGradient id="paint0_linear_1714_795" x1="31.5322" y1="23.8002" x2="88.9519" y2="57.0089" gradientUnits="userSpaceOnUse">
<stop offset="0.157367" stop-color="#005BCA"/>
<stop offset="1" stop-color="#128CFF"/>
</linearGradient>
<linearGradient id="paint1_linear_1714_795" x1="39.9248" y1="24.4298" x2="63.522" y2="47.7894" gradientUnits="userSpaceOnUse">
<stop offset="0.157367" stop-color="#005BCA"/>
<stop offset="1" stop-color="#128CFF"/>
</linearGradient>
<linearGradient id="paint2_linear_1714_795" x1="53.0761" y1="31.3906" x2="59.7843" y2="70.3469" gradientUnits="userSpaceOnUse">
<stop stop-color="#3B395F" stop-opacity="0"/>
<stop offset="1" stop-color="#3B395F"/>
</linearGradient>
<linearGradient id="paint3_linear_1714_795" x1="39.0906" y1="36.9043" x2="47.5534" y2="55.5842" gradientUnits="userSpaceOnUse">
<stop offset="0.157367" stop-color="#005BCA"/>
<stop offset="1" stop-color="#128CFF"/>
</linearGradient>
<linearGradient id="paint4_linear_1714_795" x1="62.6996" y1="70.5537" x2="42.512" y2="50.366" gradientUnits="userSpaceOnUse">
<stop stop-color="#3B395F" stop-opacity="0"/>
<stop offset="1" stop-color="#3B395F"/>
</linearGradient>
<linearGradient id="paint5_linear_1714_795" x1="44.0464" y1="60.8908" x2="62.029" y2="60.8908" gradientUnits="userSpaceOnUse">
<stop stop-color="#FFC738"/>
<stop offset="0.2344" stop-color="#FEC33A"/>
<stop offset="0.4454" stop-color="#FBB840"/>
<stop offset="0.6474" stop-color="#F6A649"/>
<stop offset="0.8426" stop-color="#F08D56"/>
<stop offset="1" stop-color="#E97264"/>
</linearGradient>
<linearGradient id="paint6_linear_1714_795" x1="52.1816" y1="59.2448" x2="59.5719" y2="73.4569" gradientUnits="userSpaceOnUse">
<stop stop-color="#FCA17A" stop-opacity="0"/>
<stop offset="0.152" stop-color="#F69373" stop-opacity="0.152941"/>
<stop offset="0.416" stop-color="#EF816B" stop-opacity="0.415686"/>
<stop offset="0.6926" stop-color="#EA7666" stop-opacity="0.694118"/>
<stop offset="1" stop-color="#E97264"/>
</linearGradient>
<linearGradient id="paint7_linear_1714_795" x1="52.7611" y1="63.6966" x2="51.8882" y2="72.5501" gradientUnits="userSpaceOnUse">
<stop stop-color="#E97264" stop-opacity="0"/>
<stop offset="1" stop-color="#B53759"/>
</linearGradient>
<linearGradient id="paint8_linear_1714_795" x1="51.2565" y1="64.1479" x2="48.5582" y2="69.0829" gradientUnits="userSpaceOnUse">
<stop stop-color="#E97264" stop-opacity="0"/>
<stop offset="1" stop-color="#B53759"/>
</linearGradient>
<radialGradient id="paint9_radial_1714_795" cx="0" cy="0" r="1" gradientUnits="userSpaceOnUse" gradientTransform="translate(50.5272 54.1197) scale(16.9526 15.1607)">
<stop stop-color="#FFC738"/>
<stop offset="0.2344" stop-color="#FEC33A"/>
<stop offset="0.4454" stop-color="#FBB840"/>
<stop offset="0.6474" stop-color="#F6A649"/>
<stop offset="0.8426" stop-color="#F08D56"/>
<stop offset="1" stop-color="#E97264"/>
</radialGradient>
<radialGradient id="paint10_radial_1714_795" cx="0" cy="0" r="1" gradientUnits="userSpaceOnUse" gradientTransform="translate(53.656 61.9844) rotate(180) scale(12.5028 11.1812)">
<stop stop-color="#FFC738"/>
<stop offset="0.2344" stop-color="#FEC33A"/>
<stop offset="0.4454" stop-color="#FBB840"/>
<stop offset="0.6474" stop-color="#F6A649"/>
<stop offset="0.8426" stop-color="#F08D56"/>
<stop offset="1" stop-color="#E97264"/>
</radialGradient>
<radialGradient id="paint11_radial_1714_795" cx="0" cy="0" r="1" gradientUnits="userSpaceOnUse" gradientTransform="translate(51.8076 55.9825) scale(14.0759 12.588)">
<stop stop-color="#FFC738"/>
<stop offset="0.2344" stop-color="#FEC33A"/>
<stop offset="0.4454" stop-color="#FBB840"/>
<stop offset="0.6474" stop-color="#F6A649"/>
<stop offset="0.8426" stop-color="#F08D56"/>
<stop offset="1" stop-color="#E97264"/>
</radialGradient>
<linearGradient id="paint12_linear_1714_795" x1="58.0443" y1="63.6409" x2="47.4748" y2="56.7025" gradientUnits="userSpaceOnUse">
<stop stop-color="#E97264" stop-opacity="0"/>
<stop offset="1" stop-color="#B53759"/>
</linearGradient>
<linearGradient id="paint13_linear_1714_795" x1="55.0895" y1="59.7031" x2="47.0323" y2="59.7031" gradientUnits="userSpaceOnUse">
<stop stop-color="#FFC738"/>
<stop offset="1" stop-color="#E97264"/>
</linearGradient>
</defs>
</svg>
