<svg width="41" height="41" viewBox="0 0 41 41" fill="none" xmlns="http://www.w3.org/2000/svg">
<g clip-path="url(#clip0_1714_859)">
<path d="M20.5 41C31.8218 41 41 31.8218 41 20.5C41 9.17816 31.8218 0 20.5 0C9.17816 0 0 9.17816 0 20.5C0 31.8218 9.17816 41 20.5 41Z" fill="url(#paint0_linear_1714_859)"/>
<path d="M15.2617 29.7477L25.8027 40.2887C34.533 37.9606 40.9999 30.0064 40.9999 20.5C40.9999 20.306 40.9999 20.112 40.9999 19.918L32.7223 12.2871L15.2617 29.7477Z" fill="#005CCD"/>
<path d="M21.0173 25.0924C21.9227 25.9977 21.9227 27.5498 21.0173 28.4551L19.1419 30.3305C18.2366 31.2359 16.6845 31.2359 15.7792 30.3305L7.56623 22.0529C6.66087 21.1476 6.66087 19.5955 7.56623 18.6902L9.44162 16.8148C10.347 15.9094 11.899 15.9094 12.8044 16.8148L21.0173 25.0924Z" fill="white"/>
<path d="M28.1957 10.8001C29.1011 9.89475 30.6531 9.89475 31.5585 10.8001L33.4339 12.6755C34.3392 13.5809 34.3392 15.1329 33.4339 16.0383L19.2067 30.2008C18.3014 31.1061 16.7493 31.1061 15.844 30.2008L13.9686 28.3254C13.0632 27.42 13.0632 25.8679 13.9686 24.9626L28.1957 10.8001Z" fill="white"/>
</g>
<defs>
<linearGradient id="paint0_linear_1714_859" x1="-1.11818" y1="-3.48936" x2="48.9208" y2="33.2599" gradientUnits="userSpaceOnUse">
<stop offset="0.157367" stop-color="#005BCA"/>
<stop offset="1" stop-color="#128CFF"/>
</linearGradient>
<clipPath id="clip0_1714_859">
<rect width="41" height="41" fill="white"/>
</clipPath>
</defs>
</svg>
