<svg width="106" height="106" viewBox="0 0 106 106" fill="none" xmlns="http://www.w3.org/2000/svg">
<rect width="106" height="106" fill="white" fill-opacity="0.04"/>
<g clip-path="url(#clip0_1714_920)">
<path d="M79.5282 36.2203C80.1744 37.9052 80.1671 39.7779 79.4424 41.4317C78.8478 42.7887 77.7172 44.1607 75.5926 44.9096C68.6235 47.366 68.6504 33.5869 68.6504 33.5869L79.3631 35.7897L79.5282 36.2203Z" fill="#DDDDDD"/>
<path d="M27.7994 70.6623C27.1532 68.9774 27.1605 67.1048 27.8852 65.4509C28.4798 64.0939 29.6104 62.7219 31.7351 61.973C38.7041 59.5166 38.6772 73.2957 38.6772 73.2957L27.9645 71.0929L27.7994 70.6623Z" fill="#DDDDDD"/>
<path d="M53.4327 78.9344C68.0311 78.9344 79.8654 67.3233 79.8654 53.0004C79.8654 38.6774 68.0311 27.0664 53.4327 27.0664C38.8343 27.0664 27 38.6774 27 53.0004C27 67.3233 38.8343 78.9344 53.4327 78.9344Z" fill="url(#paint0_linear_1714_920)"/>
<path d="M79.8499 53.8732C79.8597 53.5831 79.8665 53.2923 79.8665 52.9999C79.8665 52.7075 79.8597 52.4168 79.8499 52.1267H67.2438C67.1847 48.4678 66.7554 44.9333 65.9901 41.6971C69.4816 41.2852 72.8262 40.7024 75.9358 39.9535C76.0365 39.9292 76.1283 39.8883 76.2104 39.8356C75.9001 39.3198 75.5722 38.8154 75.2273 38.3233C72.1975 39.0396 68.9444 39.5979 65.5474 39.9905C64.9631 37.9259 64.2354 36.005 63.3744 34.2778C61.7532 31.0259 59.7698 28.6855 57.5819 27.3843C56.2301 27.1752 54.8447 27.0654 53.433 27.0654C52.0214 27.0654 50.6359 27.1752 49.2841 27.3843C47.0962 28.6856 45.1127 31.026 43.4917 34.2778C42.6307 36.005 41.9029 37.9259 41.3187 39.9905C37.9217 39.5979 34.6687 39.0395 31.6388 38.3232C31.292 38.818 30.9625 39.3253 30.6506 39.8441C30.7266 39.8896 30.8107 39.9247 30.9017 39.9466C34.0197 40.6989 37.374 41.2839 40.8762 41.6971C40.1109 44.9333 39.6816 48.4678 39.6225 52.1267H27.0166C27.0067 52.4168 27 52.7075 27 52.9999C27 53.2923 27.0067 53.5831 27.0166 53.8732H39.6227C39.6923 58.1791 40.2749 62.3124 41.3137 65.9904C38.0454 66.3611 34.9011 66.8805 31.9598 67.5442C31.8426 67.5707 31.7362 67.619 31.6438 67.6834C31.998 68.1885 32.37 68.6808 32.7589 69.1591C35.6184 68.5308 38.6678 68.0387 41.8369 67.6897C42.3163 69.1225 42.8693 70.473 43.4919 71.7221C45.1131 74.974 47.0964 77.3144 49.2843 78.6155C50.6361 78.8246 52.0215 78.9344 53.4332 78.9344C54.8449 78.9344 56.2303 78.8246 57.5821 78.6155C59.77 77.3143 61.7534 74.974 63.3746 71.7221C63.9972 70.4729 64.5502 69.1225 65.0296 67.6897C68.1987 68.0386 71.2481 68.5308 74.1075 69.1591C74.4964 68.6808 74.8682 68.1886 75.2225 67.6835C75.1301 67.619 75.0237 67.5706 74.9063 67.5441C71.9651 66.8805 68.821 66.3611 65.5528 65.9904C66.5916 62.3124 67.1743 58.1791 67.2439 53.8732H79.8499ZM52.5432 77.9908C49.7737 77.5554 47.1553 75.096 45.0908 70.9547C44.5556 69.8811 44.075 68.7266 43.6505 67.5055C46.5463 67.2402 49.5279 67.0939 52.5432 67.0696V77.9908ZM52.5432 65.3233C49.3423 65.3487 46.1779 65.5108 43.1085 65.8034C42.0624 62.2102 41.4737 58.1356 41.4028 53.8732H52.5432V65.3233ZM52.5432 52.1267H41.4028C41.4627 48.5212 41.8931 45.0503 42.6576 41.8913C45.8633 42.2112 49.1788 42.3876 52.5432 42.4141V52.1267ZM52.5432 40.6677C49.3346 40.642 46.1724 40.4791 43.1126 40.1823C43.6533 38.3282 44.3149 36.6017 45.0908 35.0451C47.1553 30.9037 49.7737 28.4443 52.5432 28.0089V40.6677ZM54.3232 28.009C57.0926 28.4444 59.711 30.9039 61.7756 35.0452C62.5515 36.6017 63.2132 38.3282 63.7537 40.1823C60.6938 40.4791 57.5316 40.6421 54.3232 40.6678V28.009ZM61.7756 70.9547C59.711 75.0961 57.0926 77.5554 54.3232 77.9908V67.0696C57.3385 67.0939 60.32 67.2402 63.2159 67.5055C62.7915 68.7266 62.3107 69.8811 61.7756 70.9547ZM63.7579 65.8034C60.6884 65.5108 57.5241 65.3487 54.3232 65.3233V53.8732H65.4636C65.3928 58.1356 64.804 62.2102 63.7579 65.8034ZM54.3232 52.1267V42.4141C57.6874 42.3876 61.0029 42.2112 64.2088 41.8913C64.9732 45.0503 65.4037 48.5213 65.4636 52.1268H54.3232V52.1267Z" fill="#10C4C4"/>
<path d="M53.4333 27.0654C52.32 27.0654 51.2232 27.1338 50.146 27.2649C63.1932 28.853 73.2919 39.769 73.2919 52.9999C73.2919 66.2309 63.1932 77.1468 50.146 78.735C51.2231 78.8661 52.32 78.9344 53.4333 78.9344C68.0319 78.9344 79.8666 67.3232 79.8666 52.9999C79.8666 38.6767 68.0319 27.0654 53.4333 27.0654Z" fill="#005CCD"/>
<path d="M74.9064 67.5438C73.1469 67.1468 71.3136 66.8026 69.4258 66.5098C69.0839 67.0583 68.7211 67.5928 68.3398 68.1134C70.3289 68.404 72.2584 68.7524 74.1076 69.1587C74.2002 69.0449 74.2916 68.9302 74.3822 68.8148C74.3933 68.8007 74.4043 68.7864 74.4154 68.7723C74.6937 68.4164 74.963 68.0533 75.2226 67.6831C75.1303 67.6187 75.0238 67.5703 74.9064 67.5438Z" fill="#11B9C1"/>
<path d="M79.85 52.127H73.2754C73.2851 52.417 73.2919 52.7078 73.2919 53.0002C73.2919 53.2926 73.2851 53.5834 73.2754 53.8734H79.85C79.854 53.7524 79.8571 53.6312 79.8599 53.5098C79.8632 53.3402 79.8664 53.1706 79.8664 53.0003C79.8664 52.83 79.8632 52.6603 79.8599 52.4908C79.8571 52.3693 79.854 52.248 79.85 52.127Z" fill="#11B9C1"/>
<path d="M52.8028 27.0735C52.6905 27.0761 52.5784 27.0792 52.4665 27.0832C52.4116 27.0851 52.3566 27.0873 52.3017 27.0895C52.1864 27.0943 52.0713 27.1 51.9563 27.1063C51.9114 27.1087 51.8663 27.1108 51.8214 27.1135C51.6633 27.1228 51.5057 27.1334 51.3483 27.1456C51.3242 27.1474 51.3003 27.1497 51.2762 27.1517C51.1406 27.1624 51.0052 27.1742 50.8701 27.187C50.8253 27.1913 50.7807 27.1958 50.736 27.2003C50.6151 27.2124 50.4947 27.2251 50.3744 27.2388C50.3353 27.2433 50.2962 27.2475 50.2573 27.2522C50.2217 27.2564 50.1864 27.2612 50.1509 27.2656C51.5802 27.4399 52.9741 27.7261 54.3232 28.1151V28.0089C55.1722 28.1424 56.007 28.467 56.816 28.9711C58.5971 29.6823 60.2816 30.5777 61.8442 31.6345C60.5615 29.7326 59.1227 28.3004 57.5822 27.3842H57.5821C57.4479 27.3635 57.3132 27.3445 57.1785 27.3257C57.1203 27.3176 57.0622 27.3095 57.0039 27.3018C56.878 27.2851 56.752 27.2692 56.6256 27.2542C56.5547 27.2459 56.4835 27.2382 56.4125 27.2304C56.293 27.2172 56.1734 27.2038 56.0533 27.1922C55.8778 27.1752 55.7019 27.1598 55.5253 27.1462C55.4393 27.1396 55.3527 27.1345 55.2665 27.1286C55.1461 27.1205 55.0256 27.1127 54.9047 27.1062C54.8222 27.1017 54.7396 27.0978 54.6568 27.0942C54.5231 27.0882 54.389 27.0832 54.2548 27.0791C54.1855 27.077 54.1164 27.0747 54.047 27.073C53.8429 27.0685 53.6383 27.0654 53.4332 27.0654C53.2724 27.0654 53.1122 27.0673 52.9521 27.0701C52.9023 27.0709 52.8526 27.0723 52.8028 27.0735Z" fill="#11B9C1"/>
<path d="M70.3391 41.08C72.2708 40.7595 74.1433 40.385 75.9358 39.9533C76.0365 39.929 76.1283 39.8881 76.2104 39.8354C75.9786 39.4503 75.7371 39.0715 75.486 38.6994C75.4843 38.697 75.4828 38.6946 75.4811 38.6922C75.3976 38.5685 75.313 38.4455 75.2273 38.3232C73.3661 38.7633 71.42 39.1431 69.4087 39.4621C69.7381 39.989 70.0479 40.529 70.3391 41.08Z" fill="#11B9C1"/>
<path d="M54.2548 78.9208C54.389 78.9168 54.5231 78.9118 54.6568 78.9058C54.7395 78.902 54.8222 78.8983 54.9047 78.8938C55.0256 78.8873 55.1461 78.8794 55.2665 78.8714C55.3527 78.8656 55.4393 78.8605 55.5253 78.8538C55.7018 78.8402 55.8778 78.8247 56.0533 78.8078C56.1734 78.7961 56.293 78.7828 56.4125 78.7696C56.4837 78.7618 56.5548 78.7541 56.6257 78.7457C56.7519 78.7308 56.8778 78.715 57.0035 78.6982C57.0622 78.6904 57.1208 78.6823 57.1793 78.674C57.3136 78.6553 57.448 78.6363 57.5816 78.6156C57.5819 78.6156 57.5821 78.6155 57.5822 78.6155C59.1227 77.6993 60.5616 76.2673 61.8442 74.3652C60.2816 75.4222 58.5971 76.3175 56.816 77.0286C56.007 77.5328 55.1722 77.8574 54.3232 77.9908V77.8848C52.9741 78.2737 51.5801 78.56 50.1509 78.7342C50.1864 78.7386 50.2217 78.7434 50.2573 78.7477C50.2963 78.7522 50.3354 78.7566 50.3746 78.7611C50.4946 78.7747 50.6148 78.7874 50.7353 78.7995C50.7805 78.8039 50.8256 78.8086 50.8707 78.8129C51.0055 78.8257 51.1407 78.8373 51.2761 78.8482C51.3002 78.8501 51.3242 78.8524 51.3485 78.8543C51.5057 78.8664 51.6634 78.8769 51.8215 78.8864C51.8664 78.889 51.9115 78.8912 51.9564 78.8936C52.0713 78.8999 52.1864 78.9055 52.3018 78.9104C52.3567 78.9127 52.4117 78.9147 52.4666 78.9167C52.5785 78.9206 52.6906 78.9239 52.8029 78.9264C52.8527 78.9275 52.9024 78.9289 52.9522 78.9299C53.1123 78.9327 53.2726 78.9345 53.4333 78.9345C53.6385 78.9345 53.8431 78.9315 54.0471 78.9269C54.1164 78.9253 54.1855 78.923 54.2548 78.9208Z" fill="#11B9C1"/>
<path d="M54.1652 61.1859L59.0734 62.9639C59.2268 63.0195 59.2634 63.2176 59.1389 63.3215C50.2272 70.7554 38.5626 73.0487 27.4253 69.3422C27.5034 69.7822 27.6229 70.2168 27.7846 70.6397L27.9494 71.0704C30.3275 76.5264 36.3401 79.4924 42.2373 78.1759C50.0533 76.4312 57.2503 72.3767 62.5503 66.7411C62.6583 66.6264 62.8508 66.662 62.9075 66.808L64.9053 71.9516C64.9799 72.1436 65.2622 72.1271 65.313 71.9277L69.0667 57.1948C69.1063 57.0394 68.9612 56.8995 68.8036 56.941L54.1839 60.7859C53.9823 60.8389 53.9694 61.1149 54.1652 61.1859Z" fill="white"/>
<path d="M53.1625 45.695L48.2543 43.9169C48.1009 43.8614 48.0643 43.6632 48.1888 43.5593C57.1005 36.1255 68.7651 33.8322 79.9024 37.5386C79.8242 37.0987 79.7048 36.664 79.5431 36.2411L79.3783 35.8104C77.0002 30.3545 70.9876 27.3884 65.0904 28.7049C57.2744 30.4496 50.0774 34.5041 44.7774 40.1396C44.6694 40.2544 44.4769 40.2187 44.4202 40.0728L42.4224 34.9292C42.3478 34.7372 42.0655 34.7536 42.0147 34.9531L38.261 49.6861C38.2214 49.8415 38.3665 49.9813 38.5241 49.9399L53.1438 46.0949C53.3454 46.0418 53.3583 45.7659 53.1625 45.695Z" fill="white"/>
</g>
<defs>
<linearGradient id="paint0_linear_1714_920" x1="25.5582" y1="22.6521" x2="89.2124" y2="70.2997" gradientUnits="userSpaceOnUse">
<stop offset="0.157367" stop-color="#005BCA"/>
<stop offset="1" stop-color="#128CFF"/>
</linearGradient>
<clipPath id="clip0_1714_920">
<rect width="53" height="52" fill="white" transform="translate(27 27)"/>
</clipPath>
</defs>
</svg>
