<svg width="106" height="106" viewBox="0 0 106 106" fill="none" xmlns="http://www.w3.org/2000/svg">
<rect width="106" height="106" fill="white" fill-opacity="0.04"/>
<path d="M53.0001 78.1338C51.3521 78.1332 49.7322 77.7065 48.2976 76.8954L34.4309 69.0503C32.9666 68.2208 31.7482 67.0181 30.8996 65.5648C30.0511 64.1114 29.6027 62.4592 29.6001 60.7762V45.2256C29.6024 43.5426 30.0507 41.8903 30.8993 40.4369C31.7478 38.9835 32.9664 37.7809 34.4309 36.9516L48.2976 29.1056C49.7322 28.2938 51.3526 27.8672 53.001 27.8672C54.6494 27.8672 56.2697 28.2938 57.7044 29.1056L71.571 36.9516C73.0352 37.7811 74.2534 38.9838 75.1017 40.4372C75.9499 41.8906 76.3979 43.5428 76.4001 45.2256V60.7762C76.3969 62.4589 75.9483 64.1108 75.1 65.5641C74.2517 67.0173 73.0338 68.2201 71.5702 69.0503L57.7035 76.8954C56.2687 77.7067 54.6484 78.1333 53.0001 78.1338Z" fill="url(#paint0_linear_1714_907)"/>
<path d="M72.0665 45.2253V60.775C72.0665 61.692 71.8229 62.5924 71.3605 63.3843C70.8982 64.1762 70.2338 64.831 69.4353 65.2817L55.5686 73.1276C54.7849 73.5707 53.9 73.8036 52.9998 73.8036C52.0995 73.8036 51.2146 73.5707 50.431 73.1276L36.5643 65.2817C35.7658 64.831 35.1014 64.1762 34.639 63.3843C34.1767 62.5924 33.9331 61.692 33.9331 60.775V45.2253C33.9336 44.309 34.1775 43.4093 34.6398 42.6182C35.1021 41.8272 35.7662 41.1731 36.5643 40.7229L50.431 32.8761C51.2146 32.4331 52.0995 32.2002 52.9998 32.2002C53.9 32.2002 54.7849 32.4331 55.5686 32.8761L69.4353 40.7229C70.2333 41.1731 70.8975 41.8272 71.3598 42.6182C71.8221 43.4093 72.066 44.309 72.0665 45.2253Z" fill="#0081FB"/>
<path d="M46.0667 45.2002C45.8368 45.2002 45.6164 45.2915 45.4538 45.454C45.2913 45.6165 45.2 45.837 45.2 46.0668V56.2623L39.9133 45.6794C39.8275 45.5021 39.6838 45.3593 39.5059 45.2746C39.328 45.1899 39.1266 45.1683 38.9348 45.2135C38.743 45.2586 38.5723 45.3677 38.4509 45.5228C38.3294 45.678 38.2644 45.8698 38.2667 46.0668V59.9335C38.2667 60.1634 38.358 60.3838 38.5205 60.5463C38.683 60.7089 38.9035 60.8002 39.1333 60.8002C39.3632 60.8002 39.5836 60.7089 39.7461 60.5463C39.9087 60.3838 40 60.1634 40 59.9335V49.738L45.291 60.3209C45.363 60.465 45.4737 60.5861 45.6107 60.6708C45.7477 60.7554 45.9056 60.8003 46.0667 60.8002C46.1337 60.7999 46.2006 60.7924 46.266 60.7776C46.4561 60.7327 46.6254 60.6249 46.7465 60.4717C46.8677 60.3185 46.9335 60.1288 46.9333 59.9335V46.0668C46.9333 45.837 46.842 45.6165 46.6795 45.454C46.517 45.2915 46.2965 45.2002 46.0667 45.2002Z" fill="white"/>
<path d="M57.3332 45.2002H50.3999C50.17 45.2002 49.9496 45.2915 49.787 45.454C49.6245 45.6166 49.5332 45.837 49.5332 46.0669V59.9335C49.5332 60.1634 49.6245 60.3838 49.787 60.5464C49.9496 60.7089 50.17 60.8002 50.3999 60.8002C50.6297 60.8002 50.8502 60.7089 51.0127 60.5464C51.1752 60.3838 51.2665 60.1634 51.2665 59.9335V53.8669H54.7332C54.9631 53.8669 55.1835 53.7756 55.346 53.613C55.5086 53.4505 55.5999 53.2301 55.5999 53.0002C55.5999 52.7703 55.5086 52.5499 55.346 52.3874C55.1835 52.2248 54.9631 52.1335 54.7332 52.1335H51.2665V46.9335H57.3332C57.5631 46.9335 57.7835 46.8422 57.946 46.6797C58.1086 46.5172 58.1999 46.2967 58.1999 46.0669C58.1999 45.837 58.1086 45.6166 57.946 45.454C57.7835 45.2915 57.5631 45.2002 57.3332 45.2002Z" fill="white"/>
<path d="M66.8669 45.2002H59.9336C59.7037 45.2002 59.4833 45.2915 59.3207 45.454C59.1582 45.6166 59.0669 45.837 59.0669 46.0669C59.0669 46.2967 59.1582 46.5172 59.3207 46.6797C59.4833 46.8422 59.7037 46.9335 59.9336 46.9335H62.5336V59.9335C62.5336 60.1634 62.6249 60.3838 62.7874 60.5464C62.9499 60.7089 63.1704 60.8002 63.4002 60.8002C63.6301 60.8002 63.8505 60.7089 64.0131 60.5464C64.1756 60.3838 64.2669 60.1634 64.2669 59.9335V46.9335H66.8669C67.0968 46.9335 67.3172 46.8422 67.4797 46.6797C67.6423 46.5172 67.7336 46.2967 67.7336 46.0669C67.7336 45.837 67.6423 45.6166 67.4797 45.454C67.3172 45.2915 67.0968 45.2002 66.8669 45.2002Z" fill="white"/>
<defs>
<linearGradient id="paint0_linear_1714_907" x1="28.3237" y1="23.5892" x2="88.237" y2="64.5558" gradientUnits="userSpaceOnUse">
<stop offset="0.157367" stop-color="#005BCA"/>
<stop offset="1" stop-color="#128CFF"/>
</linearGradient>
</defs>
</svg>
