<svg width="106" height="106" viewBox="0 0 106 106" fill="none" xmlns="http://www.w3.org/2000/svg">
<rect width="106" height="106" fill="white" fill-opacity="0.04"/>
<path d="M42.6001 35.667H63.4001V39.1337H42.6001V35.667Z" fill="url(#paint0_linear_1714_971)"/>
<path d="M41.7334 68.6006H64.2667V72.0673H41.7334V68.6006Z" fill="url(#paint1_linear_1714_971)"/>
<path d="M62.5335 50.4521V57.2814C62.5348 57.9004 62.3729 58.5088 62.064 59.0451C61.7551 59.5815 61.3102 60.0269 60.7741 60.3364L54.7075 63.8118C54.1878 64.1098 53.5992 64.2667 53.0001 64.2667C52.4011 64.2667 51.8124 64.1098 51.2928 63.8118L45.2261 60.3364C44.6901 60.0269 44.2452 59.5815 43.9363 59.0451C43.6274 58.5088 43.4654 57.9004 43.4668 57.2814V50.4521C43.4655 49.8331 43.6275 49.2248 43.9364 48.6884C44.2453 48.1521 44.6902 47.7066 45.2261 47.3971L51.2928 43.9217C51.8124 43.6236 52.4011 43.4668 53.0001 43.4668C53.5992 43.4668 54.1878 43.6236 54.7075 43.9217L60.7741 47.3971C61.3101 47.7066 61.755 48.1521 62.0639 48.6884C62.3728 49.2248 62.5347 49.8331 62.5335 50.4521Z" fill="url(#paint2_linear_1714_971)"/>
<path d="M46.9331 56.228V51.5047C46.933 51.1978 47.0145 50.8965 47.169 50.6314C47.3236 50.3663 47.5457 50.1469 47.8128 49.9958L52.1461 47.5432C52.4065 47.3958 52.7006 47.3184 52.9998 47.3184C53.299 47.3184 53.5931 47.3958 53.8534 47.5432L58.1868 49.9958C58.4538 50.1469 58.676 50.3663 58.8305 50.6314C58.9851 50.8965 59.0665 51.1978 59.0664 51.5047V56.228C59.0665 56.5349 58.9851 56.8363 58.8305 57.1013C58.676 57.3664 58.4538 57.5858 58.1868 57.7369L53.8534 60.1896C53.5931 60.3369 53.299 60.4143 52.9998 60.4143C52.7006 60.4143 52.4065 60.3369 52.1461 60.1896L47.8128 57.7369C47.5457 57.5858 47.3236 57.3664 47.169 57.1013C47.0145 56.8363 46.933 56.5349 46.9331 56.228Z" fill="#005CCD"/>
<path d="M43.3021 65.2196C43.1732 64.9599 42.9714 64.7434 42.7214 64.5965L36.3861 60.9903C36.1663 60.8673 35.9186 60.8027 35.6668 60.8027C35.4149 60.8027 35.1672 60.8673 34.9474 60.9903L28.6121 64.5939C28.3621 64.7408 28.1603 64.9573 28.0314 65.217C27.9213 65.4224 27.8646 65.6522 27.8668 65.8852V73.0439C27.8679 73.3054 27.9373 73.562 28.068 73.7885C28.1987 74.015 28.3862 74.2034 28.6121 74.3352L34.9474 77.9397C35.1664 78.0652 35.4144 78.1312 35.6668 78.1312C35.9191 78.1312 36.1671 78.0652 36.3861 77.9397L42.7214 74.3352C42.9473 74.2034 43.1348 74.015 43.2655 73.7885C43.3962 73.562 43.4656 73.3054 43.4668 73.0439V65.8852C43.4685 65.6531 43.4118 65.4242 43.3021 65.2196Z" fill="#1584E8"/>
<path d="M35.6668 69.467V78.1337C35.4149 78.1296 35.1679 78.0639 34.9474 77.9422L28.6121 74.336C28.3862 74.2042 28.1987 74.0157 28.068 73.7893C27.9373 73.5628 27.8679 73.3061 27.8668 73.0446V65.886C27.8646 65.6529 27.9213 65.4231 28.0314 65.2178L35.6668 69.467Z" fill="#106BAF"/>
<path d="M43.4665 65.8853V73.044C43.4654 73.3055 43.396 73.5621 43.2653 73.7886C43.1346 74.0151 42.947 74.2035 42.7212 74.3353L36.3858 77.9398C36.1655 78.0621 35.9185 78.1285 35.6665 78.1331V69.4664L43.3018 65.2197C43.4116 65.4243 43.4682 65.6532 43.4665 65.8853Z" fill="#09558E"/>
<path d="M77.9686 65.2196C77.8397 64.9599 77.6379 64.7434 77.3879 64.5965L71.0526 60.9903C70.8328 60.8673 70.5851 60.8027 70.3333 60.8027C70.0814 60.8027 69.8337 60.8673 69.6139 60.9903L63.2786 64.5965C63.0286 64.7434 62.8268 64.9599 62.6979 65.2196C62.5878 65.425 62.5311 65.6548 62.5333 65.8878V73.0465C62.5344 73.308 62.6038 73.5646 62.7345 73.7911C62.8652 74.0176 63.0528 74.206 63.2786 74.3378L69.6139 77.9423C69.8329 78.0678 70.0809 78.1338 70.3333 78.1338C70.5856 78.1338 70.8336 78.0678 71.0526 77.9423L77.3879 74.3378C77.6138 74.206 77.8013 74.0176 77.932 73.7911C78.0628 73.5646 78.1321 73.308 78.1333 73.0465V65.8878C78.1354 65.6548 78.0788 65.425 77.9686 65.2196Z" fill="#1584E8"/>
<path d="M70.3333 69.4663V78.1329C70.0814 78.1289 69.8344 78.0631 69.6139 77.9414L63.2786 74.3369C63.0528 74.2052 62.8652 74.0167 62.7345 73.7902C62.6038 73.5638 62.5344 73.3071 62.5333 73.0456V65.8869C62.5311 65.6539 62.5878 65.4241 62.6979 65.2188L70.3333 69.4663Z" fill="#106BAF"/>
<path d="M78.1335 65.8853V73.044C78.1323 73.3055 78.063 73.5621 77.9323 73.7886C77.8016 74.0151 77.614 74.2035 77.3882 74.3353L71.0528 77.9398C70.8325 78.0621 70.5855 78.1285 70.3335 78.1331V69.4664L77.9688 65.2197C78.0786 65.4243 78.1352 65.6532 78.1335 65.8853Z" fill="#09558E"/>
<path d="M37.3998 43.4668V63.4001C37.3998 63.8598 37.2172 64.3007 36.8921 64.6258C36.567 64.9508 36.1261 65.1335 35.6664 65.1335C35.2067 65.1335 34.7659 64.9508 34.4408 64.6258C34.1157 64.3007 33.9331 63.8598 33.9331 63.4001V43.4668H37.3998Z" fill="url(#paint3_linear_1714_971)"/>
<path d="M72.0668 43.4668V63.4001C72.0668 63.8598 71.8841 64.3007 71.5591 64.6258C71.234 64.9508 70.7931 65.1335 70.3334 65.1335C69.8737 65.1335 69.4328 64.9508 69.1078 64.6258C68.7827 64.3007 68.6001 63.8598 68.6001 63.4001V43.4668H72.0668Z" fill="url(#paint4_linear_1714_971)"/>
<path d="M43.3021 32.287C43.1734 32.0269 42.9716 31.81 42.7214 31.663L36.3861 28.0577C36.1665 27.9341 35.9187 27.8691 35.6667 27.8691C35.4148 27.8691 35.167 27.9341 34.9474 28.0577L28.6121 31.663C28.3619 31.81 28.1601 32.0269 28.0314 32.287C27.9214 32.4921 27.8648 32.7216 27.8667 32.9544V40.113C27.8679 40.3745 27.9373 40.6312 28.068 40.8576C28.1987 41.0841 28.3862 41.2726 28.6121 41.4044L34.9474 45.0097C35.1666 45.1346 35.4145 45.2003 35.6667 45.2003C35.919 45.2003 36.1669 45.1346 36.3861 45.0097L42.7214 41.4044C42.9473 41.2726 43.1348 41.0841 43.2655 40.8576C43.3962 40.6312 43.4656 40.3745 43.4667 40.113V32.9544C43.4687 32.7216 43.4121 32.4921 43.3021 32.287Z" fill="#1584E8"/>
<path d="M35.6668 36.5338V45.2004C35.415 45.1967 35.168 45.1312 34.9474 45.0098L28.6121 41.4044C28.3862 41.2726 28.1987 41.0842 28.068 40.8577C27.9373 40.6313 27.8679 40.3746 27.8667 40.1131V32.9544C27.8648 32.7217 27.9214 32.4922 28.0314 32.2871L35.6668 36.5338Z" fill="#106BAF"/>
<path d="M43.4665 32.9544V40.1131C43.4654 40.3746 43.396 40.6313 43.2653 40.8577C43.1346 41.0842 42.947 41.2726 42.7212 41.4044L36.3858 45.0098C36.1653 45.1312 35.9183 45.1967 35.6665 45.2004V36.5338L43.3018 32.2871C43.4119 32.4922 43.4685 32.7217 43.4665 32.9544Z" fill="#09558E"/>
<path d="M77.9686 32.287C77.8399 32.0269 77.6381 31.81 77.3879 31.663L71.0526 28.0577C70.833 27.9341 70.5852 27.8691 70.3333 27.8691C70.0813 27.8691 69.8335 27.9341 69.6139 28.0577L63.2786 31.663C63.0284 31.81 62.8266 32.0269 62.6979 32.287C62.5879 32.4921 62.5313 32.7216 62.5333 32.9544V40.113C62.5344 40.3745 62.6038 40.6312 62.7345 40.8576C62.8652 41.0841 63.0527 41.2726 63.2786 41.4044L69.6139 45.0097C69.8331 45.1346 70.081 45.2003 70.3333 45.2003C70.5855 45.2003 70.8334 45.1346 71.0526 45.0097L77.3879 41.4044C77.6138 41.2726 77.8013 41.0841 77.932 40.8576C78.0627 40.6312 78.1321 40.3745 78.1333 40.113V32.9544C78.1352 32.7216 78.0786 32.4921 77.9686 32.287Z" fill="#1584E8"/>
<path d="M70.3333 36.5338V45.2004C70.0815 45.1967 69.8345 45.1312 69.6139 45.0098L63.2786 41.4044C63.0527 41.2726 62.8652 41.0842 62.7345 40.8577C62.6038 40.6313 62.5344 40.3746 62.5333 40.1131V32.9544C62.5313 32.7217 62.5879 32.4922 62.6979 32.2871L70.3333 36.5338Z" fill="#106BAF"/>
<path d="M78.1335 32.9544V40.1131C78.1323 40.3746 78.063 40.6313 77.9323 40.8577C77.8016 41.0842 77.614 41.2726 77.3882 41.4044L71.0528 45.0098C70.8323 45.1312 70.5853 45.1967 70.3335 45.2004V36.5338L77.9688 32.2871C78.0789 32.4922 78.1355 32.7217 78.1335 32.9544Z" fill="#09558E"/>
<defs>
<linearGradient id="paint0_linear_1714_971" x1="42.0328" y1="35.372" x2="43.9468" y2="43.8058" gradientUnits="userSpaceOnUse">
<stop offset="0.157367" stop-color="#005BCA"/>
<stop offset="1" stop-color="#128CFF"/>
</linearGradient>
<linearGradient id="paint1_linear_1714_971" x1="41.1189" y1="68.3056" x2="42.8985" y2="76.801" gradientUnits="userSpaceOnUse">
<stop offset="0.157367" stop-color="#005BCA"/>
<stop offset="1" stop-color="#128CFF"/>
</linearGradient>
<linearGradient id="paint2_linear_1714_971" x1="42.9468" y1="41.6966" x2="67.5964" y2="58.2911" gradientUnits="userSpaceOnUse">
<stop offset="0.157367" stop-color="#005BCA"/>
<stop offset="1" stop-color="#128CFF"/>
</linearGradient>
<linearGradient id="paint3_linear_1714_971" x1="33.8386" y1="41.6228" x2="40.2628" y2="42.3777" gradientUnits="userSpaceOnUse">
<stop offset="0.157367" stop-color="#005BCA"/>
<stop offset="1" stop-color="#128CFF"/>
</linearGradient>
<linearGradient id="paint4_linear_1714_971" x1="68.5056" y1="41.6228" x2="74.9298" y2="42.3777" gradientUnits="userSpaceOnUse">
<stop offset="0.157367" stop-color="#005BCA"/>
<stop offset="1" stop-color="#128CFF"/>
</linearGradient>
</defs>
</svg>
