<svg width="106" height="106" viewBox="0 0 106 106" fill="none" xmlns="http://www.w3.org/2000/svg">
<rect width="106" height="106" fill="white" fill-opacity="0.04"/>
<path d="M53.9763 30.092C44.1791 26.672 33.4645 31.8417 30.0445 41.639C26.8702 50.7325 31.0969 60.6152 39.5545 64.7228C39.9184 64.3182 40.3031 63.9344 40.6984 63.5605C35.4377 58.6332 33.2694 50.8904 35.7978 43.6473C38.8759 34.8297 47.8626 29.7619 56.7714 31.3295C55.8883 30.85 54.9559 30.434 53.9763 30.092Z" fill="#114586"/>
<path d="M66.3056 43.8673C65.24 44.2184 64.0919 43.639 63.7409 42.5734C61.4733 35.6884 55.0752 31.0625 47.8203 31.0625C38.5801 31.0625 31.0625 38.5801 31.0625 47.8203C31.0625 53.9754 34.4271 59.6239 39.8432 62.5617C40.8293 63.0965 41.1951 64.3296 40.6602 65.3157C40.2922 65.994 39.5939 66.3787 38.8729 66.3788C38.5456 66.3788 38.2139 66.2996 37.9061 66.1326C31.179 62.4838 27 55.4669 27 47.8203C27 36.3399 36.3399 27 47.8203 27C52.2909 27 56.5523 28.3961 60.1437 31.0373C63.6615 33.6243 66.2396 37.1739 67.5994 41.3025C67.9504 42.368 67.3711 43.5164 66.3056 43.8673ZM53.6094 50.8672C53.6094 49.4822 52.9945 48.1429 51.9225 47.1927C50.9013 46.2875 49.5528 45.7891 48.125 45.7891C47.1408 45.7891 46.3984 45.3524 46.3984 44.7734C46.3984 44.2134 46.854 43.7578 47.4141 43.7578C48.1356 43.7578 49.0132 43.8395 50.5372 44.4322C51.5829 44.8386 52.7599 44.3208 53.1666 43.2753C53.5731 42.2297 53.0551 41.0525 52.0097 40.6459C51.3592 40.3929 50.7794 40.2061 50.2578 40.0685V39.5938C50.2578 38.4719 49.3484 37.5625 48.2266 37.5625C47.1047 37.5625 46.1953 38.4719 46.1953 39.5938V39.8432C43.9819 40.3905 42.3359 42.3933 42.3359 44.7734C42.3359 47.6685 44.8247 49.8516 48.125 49.8516C48.8958 49.8516 49.5469 50.3167 49.5469 50.8672C49.5469 51.4177 49.0585 51.8828 48.4805 51.8828C48.0559 51.8828 46.6059 51.7444 45.016 51.1125C43.9736 50.6981 42.7924 51.2073 42.3781 52.2498C41.9637 53.2923 42.4728 54.4733 43.5154 54.8876C44.4445 55.2569 45.3678 55.5136 46.1954 55.6815V55.9453C46.1954 57.0672 47.1048 57.9766 48.2267 57.9766C49.3485 57.9766 50.2579 57.0672 50.2579 55.9453V55.6309C52.2125 54.9136 53.6094 53.0489 53.6094 50.8672ZM76.9688 65.3906C75.8469 65.3906 74.9375 66.3 74.9375 67.4219V76.9688C74.9375 78.0906 75.8469 79 76.9688 79C78.0906 79 79 78.0906 79 76.9688V67.4219C79 66.3 78.0906 65.3906 76.9688 65.3906ZM68.8438 67.7266C67.7219 67.7266 66.8125 68.636 66.8125 69.7578V76.9688C66.8125 78.0906 67.7219 79 68.8438 79C69.9656 79 70.875 78.0906 70.875 76.9688V69.7578C70.875 68.636 69.9656 67.7266 68.8438 67.7266ZM60.7188 72.1953C59.5969 72.1953 58.6875 73.1047 58.6875 74.2266V76.9688C58.6875 78.0906 59.5969 79 60.7188 79C61.8406 79 62.75 78.0906 62.75 76.9688V74.2266C62.75 73.1047 61.8406 72.1953 60.7188 72.1953ZM52.5938 70.4688C51.4719 70.4688 50.5625 71.3781 50.5625 72.5V76.9688C50.5625 78.0906 51.4719 79 52.5938 79C53.7156 79 54.625 78.0906 54.625 76.9688V72.5C54.625 71.3781 53.7156 70.4688 52.5938 70.4688Z" fill="url(#paint0_linear_1714_997)"/>
<path d="M37.3179 79C36.7956 79 36.2737 78.7999 35.8767 78.4002C35.0861 77.6042 35.0905 76.3181 35.8864 75.5276L47.6634 63.83C47.6872 63.8064 47.7117 63.7834 47.7366 63.7609C50.3106 61.446 54.1444 61.3155 56.8686 63.4453L57.0395 63.5704C57.0599 63.5852 57.08 63.6006 57.0998 63.6163C58.3572 64.6107 60.1822 64.4564 61.2545 63.2647C61.2642 63.2541 61.2739 63.2435 61.2838 63.233L68.4804 55.5704C69.2484 54.7528 70.5339 54.7123 71.3517 55.4805C72.1695 56.2485 72.2097 57.534 71.4418 58.3516L64.2586 65.9998C61.7636 68.7542 57.5389 69.1157 54.6122 66.8283L54.4411 66.703C54.4207 66.6882 54.4007 66.6729 54.3808 66.6571C53.224 65.7422 51.5932 65.7845 50.4863 66.7524L38.7493 78.4099C38.3531 78.8034 37.8354 79 37.3179 79ZM79 59.2969V53.8125C79 50.4524 76.2664 47.7188 72.9063 47.7188H67.4219C66.3001 47.7188 65.3907 48.6281 65.3907 49.75C65.3907 50.8719 66.3001 51.7812 67.4219 51.7812H72.9063C74.0263 51.7812 74.9375 52.6925 74.9375 53.8125V59.2969C74.9375 60.4187 75.8469 61.3281 76.9688 61.3281C78.0906 61.3281 79 60.4187 79 59.2969Z" fill="white"/>
<defs>
<linearGradient id="paint0_linear_1714_997" x1="25.5818" y1="22.5745" x2="89.0458" y2="69.1833" gradientUnits="userSpaceOnUse">
<stop offset="0.157367" stop-color="#005BCA"/>
<stop offset="1" stop-color="#128CFF"/>
</linearGradient>
</defs>
</svg>
