<svg width="106" height="106" viewBox="0 0 106 106" fill="none" xmlns="http://www.w3.org/2000/svg">
<rect width="106" height="106" fill="white" fill-opacity="0.04"/>
<g clip-path="url(#clip0_1714_943)">
<path d="M28.7429 48.7212C27.8566 48.7212 27.1382 48.0028 27.1382 47.1165V43.6282C27.1382 42.7419 27.8566 42.0234 28.7429 42.0234H55.1995C56.0733 42.0234 56.7817 42.7318 56.7817 43.6056V47.1392C56.7817 48.013 56.0733 48.7213 55.1995 48.7213H28.7429V48.7212Z" fill="url(#paint0_linear_1714_943)"/>
<path d="M28.7429 62.0132C27.8566 62.0132 27.1382 61.2948 27.1382 60.4085V56.9202C27.1382 56.0339 27.8566 55.3154 28.7429 55.3154H55.1995C56.0733 55.3154 56.7817 56.0238 56.7817 56.8976V60.4312C56.7817 61.305 56.0733 62.0133 55.1995 62.0133H28.7429V62.0132Z" fill="#005CCD"/>
<path d="M28.6047 75.4087C27.7184 75.4087 27 74.6903 27 73.804V70.3157C27 69.4294 27.7184 68.7109 28.6047 68.7109H55.0614C55.9352 68.7109 56.6435 69.4193 56.6435 70.2931V73.8267C56.6435 74.7005 55.9352 75.4088 55.0614 75.4088H28.6047V75.4087Z" fill="url(#paint1_linear_1714_943)"/>
<path d="M28.7429 55.3589C27.8566 55.3589 27.1382 54.6405 27.1382 53.7542V50.2659C27.1382 49.3796 27.8566 48.6611 28.7429 48.6611H55.1995C56.0733 48.6611 56.7817 49.3695 56.7817 50.2433V53.7769C56.7817 54.6507 56.0733 55.359 55.1995 55.359H28.7429V55.3589Z" fill="#005CCD"/>
<path d="M28.7429 68.7105C27.8566 68.7105 27.1382 67.992 27.1382 67.1057V63.6174C27.1382 62.7311 27.8566 62.0127 28.7429 62.0127H55.1995C56.0733 62.0127 56.7817 62.721 56.7817 63.5948V67.1284C56.7817 68.0022 56.0733 68.7106 55.1995 68.7106H28.7429V68.7105Z" fill="#005CCD"/>
<path d="M30.8133 46.5273C29.927 46.5273 29.2086 45.8088 29.2086 44.9225V42.0234H28.7429C27.8566 42.0234 27.1382 42.7419 27.1382 43.6282V47.1165C27.1382 48.0028 27.8566 48.7212 28.7429 48.7212H55.1995C56.0733 48.7212 56.7817 48.0129 56.7817 47.1391V46.5272H30.8133V46.5273Z" fill="#005CCD"/>
<path d="M30.8133 59.8183C29.927 59.8183 29.2086 59.0998 29.2086 58.2135V55.3145H28.7429C27.8566 55.3145 27.1382 56.0329 27.1382 56.9192V60.4075C27.1382 61.2938 27.8566 62.0122 28.7429 62.0122H55.1995C56.0733 62.0122 56.7817 61.3039 56.7817 60.4301V59.8182H30.8133V59.8183Z" fill="url(#paint2_linear_1714_943)"/>
<path d="M30.6752 73.2138C29.789 73.2138 29.0705 72.4953 29.0705 71.609V68.71H28.6047C27.7184 68.71 27 69.4284 27 70.3147V73.803C27 74.6893 27.7184 75.4077 28.6047 75.4077H55.0614C55.9352 75.4077 56.6435 74.6994 56.6435 73.8256V73.2137H30.6752V73.2138Z" fill="#005CCD"/>
<path d="M30.8133 53.164C29.927 53.164 29.2086 52.4456 29.2086 51.5593V48.6602H28.7429C27.8566 48.6602 27.1382 49.3786 27.1382 50.2649V53.7532C27.1382 54.6395 27.8566 55.3579 28.7429 55.3579H55.1995C56.0733 55.3579 56.7817 54.6496 56.7817 53.7758V53.1639H30.8133V53.164Z" fill="url(#paint3_linear_1714_943)"/>
<path d="M30.8133 66.5165C29.927 66.5165 29.2086 65.798 29.2086 64.9117V62.0127H28.7429C27.8566 62.0127 27.1382 62.7311 27.1382 63.6174V67.1057C27.1382 67.992 27.8566 68.7105 28.7429 68.7105H55.1995C56.0733 68.7105 56.7817 68.0021 56.7817 67.1283V66.5164H30.8133V66.5165Z" fill="url(#paint4_linear_1714_943)"/>
<path d="M61.3671 75.5662C71.1054 75.5662 78.9998 67.6718 78.9998 57.9335C78.9998 48.1952 71.1054 40.3008 61.3671 40.3008C51.6288 40.3008 43.7344 48.1952 43.7344 57.9335C43.7344 67.6718 51.6288 75.5662 61.3671 75.5662Z" fill="#005CCD"/>
<path d="M50.41 57.3021C50.41 49.2912 55.7537 42.5282 63.0699 40.381C62.5098 40.3274 61.9413 40.2998 61.3671 40.2998C51.6288 40.2998 43.7344 48.1943 43.7344 57.9325C43.7344 67.6709 51.6288 75.5653 61.3671 75.5653C63.0945 75.5653 64.7626 75.3172 66.3403 74.8542C57.4006 73.998 50.41 66.4662 50.41 57.3021Z" fill="url(#paint5_linear_1714_943)"/>
<path d="M61.3676 71.785C69.0175 71.785 75.219 65.5834 75.219 57.9335C75.219 50.2835 69.0175 44.082 61.3676 44.082C53.7176 44.082 47.5161 50.2835 47.5161 57.9335C47.5161 65.5834 53.7176 71.785 61.3676 71.785Z" fill="url(#paint6_linear_1714_943)"/>
<path d="M57.0599 71.0994C53.0063 67.8691 50.41 62.8893 50.41 57.303C50.41 52.9136 52.0155 48.8974 54.6693 45.8115C50.408 48.1763 47.5156 52.7241 47.5156 57.9334C47.5157 64.0685 51.5237 69.2845 57.0599 71.0994Z" fill="#005CCD"/>
<path d="M65.8278 57.0644C66.4866 56.38 66.8929 55.4511 66.8929 54.4284C66.8929 52.495 65.443 50.8952 63.5737 50.6561V49.414C63.5737 48.9404 63.1899 48.5566 62.7164 48.5566C62.2427 48.5566 61.859 48.9405 61.859 49.414V50.6241H60.0655V49.414C60.0655 48.9404 59.6816 48.5566 59.2081 48.5566C58.7346 48.5566 58.3508 48.9405 58.3508 49.414V50.6241H55.5492C55.0756 50.6241 54.6919 51.008 54.6919 51.4815C54.6919 51.9551 55.0757 52.3388 55.5492 52.3388H56.3418V63.4313H55.5492C55.0756 63.4313 54.6919 63.8152 54.6919 64.2887C54.6919 64.7623 55.0757 65.146 55.5492 65.146C55.5492 65.146 57.6784 65.1448 58.3508 65.143V66.4524C58.3508 66.926 58.7346 67.3098 59.2081 67.3098C59.6816 67.3098 60.0655 66.9259 60.0655 66.4524V65.1385C60.6696 65.137 61.2944 65.1355 61.859 65.1342V66.4524C61.859 66.926 62.2429 67.3098 62.7164 67.3098C63.1899 67.3098 63.5737 66.9259 63.5737 66.4524V65.1308C63.6384 65.1307 63.6938 65.1307 63.7383 65.1307C66.1119 65.1307 68.043 63.1996 68.043 60.8261C68.0431 59.2104 67.1478 57.8005 65.8278 57.0644ZM65.1782 54.4284C65.1782 55.5806 64.2408 56.518 63.0886 56.518C62.8159 56.518 58.0565 56.5214 58.0565 56.5214V52.3388H63.0886C64.2409 52.3388 65.1782 53.2762 65.1782 54.4284ZM63.7383 63.416C63.0295 63.416 59.6648 63.4248 58.0564 63.4289V58.2435C58.865 58.2415 63.7383 58.2361 63.7383 58.2361C65.1665 58.2361 66.3283 59.398 66.3283 60.8261C66.3283 62.2542 65.1666 63.416 63.7383 63.416Z" fill="white"/>
<path d="M40.0253 39.4004C39.637 39.4004 39.2617 39.2557 38.9732 38.993L35.8852 36.179C35.6429 35.9582 35.6255 35.5827 35.8462 35.3404L37.1507 33.9089C37.3715 33.6665 37.747 33.6491 37.9893 33.8699L39.8573 35.5721C39.8877 35.5998 39.935 35.5974 39.9625 35.5668L49.7523 24.6323C49.9709 24.388 50.3463 24.3672 50.5904 24.5859L52.0335 25.8779C52.2776 26.0966 52.2984 26.4719 52.0798 26.7161L41.2134 38.8532C40.9319 39.1676 40.5416 39.3727 40.1205 39.3975C40.0887 39.3994 40.0569 39.4004 40.0253 39.4004Z" fill="url(#paint7_linear_1714_943)"/>
</g>
<defs>
<linearGradient id="paint0_linear_1714_943" x1="26.3297" y1="41.4534" x2="31.1454" y2="57.106" gradientUnits="userSpaceOnUse">
<stop offset="0.157367" stop-color="#005BCA"/>
<stop offset="1" stop-color="#128CFF"/>
</linearGradient>
<linearGradient id="paint1_linear_1714_943" x1="26.1915" y1="68.1409" x2="31.0072" y2="83.7935" gradientUnits="userSpaceOnUse">
<stop offset="0.157367" stop-color="#005BCA"/>
<stop offset="1" stop-color="#128CFF"/>
</linearGradient>
<linearGradient id="paint2_linear_1714_943" x1="26.3297" y1="54.7444" x2="31.1452" y2="70.3968" gradientUnits="userSpaceOnUse">
<stop offset="0.157367" stop-color="#005BCA"/>
<stop offset="1" stop-color="#128CFF"/>
</linearGradient>
<linearGradient id="paint3_linear_1714_943" x1="26.3297" y1="48.0901" x2="31.1452" y2="63.7425" gradientUnits="userSpaceOnUse">
<stop offset="0.157367" stop-color="#005BCA"/>
<stop offset="1" stop-color="#128CFF"/>
</linearGradient>
<linearGradient id="paint4_linear_1714_943" x1="26.3297" y1="61.4427" x2="31.1452" y2="77.095" gradientUnits="userSpaceOnUse">
<stop offset="0.157367" stop-color="#005BCA"/>
<stop offset="1" stop-color="#128CFF"/>
</linearGradient>
<linearGradient id="paint5_linear_1714_943" x1="43.1179" y1="37.2985" x2="77.8833" y2="53.6652" gradientUnits="userSpaceOnUse">
<stop offset="0.157367" stop-color="#005BCA"/>
<stop offset="1" stop-color="#128CFF"/>
</linearGradient>
<linearGradient id="paint6_linear_1714_943" x1="46.7606" y1="41.7243" x2="80.571" y2="66.5551" gradientUnits="userSpaceOnUse">
<stop offset="0.157367" stop-color="#005BCA"/>
<stop offset="1" stop-color="#128CFF"/>
</linearGradient>
<linearGradient id="paint7_linear_1714_943" x1="35.2403" y1="23.1609" x2="53.9733" y2="38.3654" gradientUnits="userSpaceOnUse">
<stop offset="0.157367" stop-color="#005BCA"/>
<stop offset="1" stop-color="#128CFF"/>
</linearGradient>
<clipPath id="clip0_1714_943">
<rect width="52" height="52" fill="white" transform="translate(27 24)"/>
</clipPath>
</defs>
</svg>
