<svg width="106" height="106" viewBox="0 0 106 106" fill="none" xmlns="http://www.w3.org/2000/svg">
<rect width="106" height="106" fill="white" fill-opacity="0.04"/>
<g opacity="0.08">
<path opacity="0.08" d="M53.5001 79C67.8957 79 79.5657 67.5503 79.5657 53.4263C79.5657 39.3023 67.8957 27.8525 53.5001 27.8525C39.1045 27.8525 27.4346 39.3023 27.4346 53.4263C27.4346 67.5503 39.1045 79 53.5001 79Z" fill="white"/>
</g>
<path d="M53.5001 78.1475C67.8957 78.1475 79.5657 66.6977 79.5657 52.5737C79.5657 38.4498 67.8957 27 53.5001 27C39.1045 27 27.4346 38.4498 27.4346 52.5737C27.4346 66.6977 39.1045 78.1475 53.5001 78.1475Z" fill="url(#paint0_linear_1714_891)"/>
<g opacity="0.16">
<path opacity="0.16" d="M53.5001 27C39.1041 27 27.4346 38.4493 27.4346 52.5737C27.4346 66.6981 39.1041 78.1476 53.5001 78.1476C67.8961 78.1476 79.5657 66.6982 79.5657 52.5738C79.5657 38.4494 67.8961 27 53.5001 27ZM53.5001 76.4427C40.0642 76.4427 29.1723 65.7562 29.1723 52.5738C29.1723 39.3914 40.0642 28.7049 53.5001 28.7049C66.936 28.7049 77.8279 39.3913 77.8279 52.5737C77.8133 65.7503 66.9299 76.4281 53.5001 76.4427Z" fill="url(#paint1_linear_1714_891)"/>
</g>
<path d="M53.5 75.5904C40.5437 75.5904 30.041 65.2859 30.041 52.574C30.041 39.8621 40.5437 29.5576 53.5 29.5576C66.4564 29.5576 76.9591 39.8621 76.9591 52.574C76.9442 65.28 66.4503 75.576 53.5 75.5904ZM53.5 31.2625C41.5038 31.2625 31.7787 40.8041 31.7787 52.574C31.7787 64.3439 41.5038 73.8855 53.5 73.8855C65.4963 73.8855 75.2213 64.3439 75.2213 52.574C75.2075 40.8092 65.4911 31.2763 53.5 31.2625Z" fill="url(#paint2_linear_1714_891)"/>
<path d="M65.2677 46.124C65.2746 46.7591 64.8194 47.309 64.1842 47.4326C62.8027 47.73 60.0146 48.4308 58.3168 48.8144C57.527 48.99 56.9667 49.6805 56.9701 50.4759C56.977 52.2618 57.0005 55.2156 57.0769 56.0024C57.1708 57.1549 57.3263 58.3007 57.5435 59.4369C57.7537 60.5784 58.0205 61.7139 58.3428 62.834C58.6539 63.9413 59.0266 65.0308 59.4593 66.098L59.4819 66.1535C59.7504 66.8081 59.4263 67.5532 58.7581 67.8157C58.1195 68.0672 57.3923 67.7884 57.0969 67.179C56.5469 66.035 56.063 64.8611 55.6485 63.6626C55.2314 62.4819 54.8717 61.2824 54.5703 60.0643C54.4712 59.6714 54.3826 59.2758 54.2974 58.8786C54.2565 58.6825 54.0793 58.541 53.8742 58.541H53.1253C52.9202 58.541 52.743 58.6824 52.7013 58.8794C52.617 59.2766 52.5275 59.6722 52.4284 60.0651C52.1278 61.2832 51.7681 62.4827 51.3502 63.6634C50.9349 64.8611 50.4518 66.035 49.9018 67.1798C49.5925 67.8174 48.8149 68.0876 48.1659 67.7842C47.5447 67.4943 47.2605 66.78 47.5168 66.1543L47.5394 66.0988C47.9721 65.0315 48.3449 63.9422 48.6559 62.8348C48.9783 61.7147 49.245 60.5792 49.4553 59.4378C49.6724 58.3015 49.8289 57.1558 49.9218 56.0032C49.9983 55.2164 50.0209 52.2627 50.0286 50.4767C50.0312 49.6822 49.4717 48.9918 48.6819 48.8152C46.9841 48.4308 44.1961 47.731 42.8145 47.4334C42.1794 47.3098 41.7241 46.7599 41.731 46.1248C41.7579 45.419 42.3635 44.8683 43.0829 44.8956C43.1594 44.8982 43.235 44.9076 43.3098 44.9238L43.3888 44.9408C46.7018 45.7216 50.092 46.1376 53.4988 46.1811C56.9056 46.1376 60.2967 45.7208 63.6087 44.9408L63.6878 44.9238C64.3916 44.7738 65.0858 45.2119 65.2379 45.9024C65.2555 45.9749 65.2651 46.0499 65.2677 46.124ZM53.4999 44.0492C55.4192 44.0492 56.9754 42.5224 56.9754 40.6394C56.9754 38.7563 55.4192 37.2295 53.4999 37.2295C51.5806 37.2295 50.0245 38.7563 50.0245 40.6394C50.0245 42.5224 51.5806 44.0492 53.4999 44.0492Z" fill="url(#paint3_linear_1714_891)"/>
<g opacity="0.16">
<path opacity="0.16" d="M53.5001 27C39.1041 27 27.4346 38.4493 27.4346 52.5737C27.4346 66.6981 39.1041 78.1476 53.5001 78.1476C67.8961 78.1476 79.5657 66.6982 79.5657 52.5738C79.5657 38.4494 67.8961 27 53.5001 27ZM53.5001 77.2951C39.5846 77.2951 28.3034 66.2268 28.3034 52.5737C28.3034 38.9207 39.5846 27.8524 53.5001 27.8524C67.4156 27.8524 78.6969 38.9207 78.6969 52.5737C78.6969 66.2268 67.4156 77.2951 53.5001 77.2951Z" fill="white"/>
</g>
<defs>
<linearGradient id="paint0_linear_1714_891" x1="26.0128" y1="22.647" x2="88.7828" y2="69.6327" gradientUnits="userSpaceOnUse">
<stop offset="0.157367" stop-color="#005BCA"/>
<stop offset="1" stop-color="#128CFF"/>
</linearGradient>
<linearGradient id="paint1_linear_1714_891" x1="53.5002" y1="78.1499" x2="53.5002" y2="27.0027" gradientUnits="userSpaceOnUse">
<stop/>
<stop offset="0.36" stop-opacity="0"/>
</linearGradient>
<linearGradient id="paint2_linear_1714_891" x1="53.5001" y1="75.5929" x2="53.5001" y2="29.5603" gradientUnits="userSpaceOnUse">
<stop stop-color="#E2EFF6"/>
<stop offset="1" stop-color="white"/>
</linearGradient>
<linearGradient id="paint3_linear_1714_891" x1="53.4996" y1="67.9112" x2="53.4996" y2="37.2321" gradientUnits="userSpaceOnUse">
<stop stop-color="#E2EFF6"/>
<stop offset="1" stop-color="white"/>
</linearGradient>
</defs>
</svg>
